Coordinates
version=1
nRows=17
nColumns=24
inDegrees=yes

Units are S.I. units (second, meters, Newtons, ...)
Angles are in degrees.

endheader
time	pelvis_tilt	pelvis_list	pelvis_rotation	pelvis_tx	pelvis_ty	pelvis_tz	hip_flexion_r	hip_adduction_r	hip_rotation_r	knee_angle_r	ankle_angle_r	subtalar_angle_r	mtp_angle_r	hip_flexion_l	hip_adduction_l	hip_rotation_l	knee_angle_l	ankle_angle_l	subtalar_angle_l	mtp_angle_l	lumbar_extension	lumbar_bending	lumbar_rotation
      0.00000000	      2.36838773	     26.99501920	     88.50830378	      0.34330913	      0.98838801	     -1.24640798	     61.59024040	    -17.16414759	    -10.08381749	    -80.03715691	    -19.71958091	      0.00000000	      0.00000000	     60.09124380	    -20.03815584	    -11.00403231	    -79.06414785	    -15.75492533	      0.00000000	      0.00000000	    -23.18551255	      1.67504169	     -0.03764761
      0.00833333	      2.36838773	     26.99501920	     88.50830378	      0.34330913	      0.98838801	     -1.24640798	     61.59024040	    -17.16414759	    -10.08381749	    -80.03715691	    -19.71958091	      0.00000000	      0.00000000	     60.09124380	    -20.03815584	    -11.00403231	    -79.06414785	    -15.75492533	      0.00000000	      0.00000000	    -23.18551255	      1.67504169	     -0.03764761
      0.01666667	      2.36838773	     26.99501920	     88.50830378	      0.34330913	      0.98838801	     -1.24640798	     61.59024040	    -17.16414759	    -10.08381749	    -80.03715691	    -19.71958091	      0.00000000	      0.00000000	     60.09124380	    -20.03815584	    -11.00403231	    -79.06414785	    -15.75492533	      0.00000000	      0.00000000	    -23.18551255	      1.67504169	     -0.03764761
      0.02500000	      2.36838773	     26.99501920	     88.50830378	      0.34330913	      0.98838801	     -1.24640798	     61.59024040	    -17.16414759	    -10.08381749	    -80.03715691	    -19.71958091	      0.00000000	      0.00000000	     60.09124380	    -20.03815584	    -11.00403231	    -79.06414785	    -15.75492533	      0.00000000	      0.00000000	    -23.18551255	      1.67504169	     -0.03764761
      0.03333333	      2.36838773	     26.99501920	     88.50830378	      0.34330913	      0.98838801	     -1.24640798	     61.59024040	    -17.16414759	    -10.08381749	    -80.03715691	    -19.71958091	      0.00000000	      0.00000000	     60.09124380	    -20.03815584	    -11.00403231	    -79.06414785	    -15.75492533	      0.00000000	      0.00000000	    -23.18551255	      1.67504169	     -0.03764761
      0.04166667	      2.36838773	     26.99501920	     88.50830378	      0.34330913	      0.98838801	     -1.24640798	     61.59024040	    -17.16414759	    -10.08381749	    -80.03715691	    -19.71958091	      0.00000000	      0.00000000	     60.09124380	    -20.03815584	    -11.00403231	    -79.06414785	    -15.75492533	      0.00000000	      0.00000000	    -23.18551255	      1.67504169	     -0.03764761
      0.05000000	      2.36838773	     26.99501920	     88.50830378	      0.34330913	      0.98838801	     -1.24640798	     61.59024040	    -17.16414759	    -10.08381749	    -80.03715691	    -19.71958091	      0.00000000	      0.00000000	     60.09124380	    -20.03815584	    -11.00403231	    -79.06414785	    -15.75492533	      0.00000000	      0.00000000	    -23.18551255	      1.67504169	     -0.03764761
      0.05833333	      2.36838773	     26.99501920	     88.50830378	      0.34330913	      0.98838801	     -1.24640798	     61.59024040	    -17.16414759	    -10.08381749	    -80.03715691	    -19.71958091	      0.00000000	      0.00000000	     60.09124380	    -20.03815584	    -11.00403231	    -79.06414785	    -15.75492533	      0.00000000	      0.00000000	    -23.18551255	      1.67504169	     -0.03764761
      0.06666667	      2.36838773	     26.99501920	     88.50830378	      0.34330913	      0.98838801	     -1.24640798	     61.59024040	    -17.16414759	    -10.08381749	    -80.03715691	    -19.71958091	      0.00000000	      0.00000000	     60.09124380	    -20.03815584	    -11.00403231	    -79.06414785	    -15.75492533	      0.00000000	      0.00000000	    -23.18551255	      1.67504169	     -0.03764761
      0.07500000	      2.36869805	     26.99490419	     88.50837293	      0.34331038	      0.98837784	     -1.24640952	     61.59029142	    -17.16421185	    -10.08373594	    -80.03709455	    -19.71957958	      0.00000000	      0.00000000	     60.09106025	    -20.03813796	    -11.00406246	    -79.06416362	    -15.75492060	      0.00000000	      0.00000000	    -23.18552282	      1.67500178	     -0.03764685
      0.08333333	      2.36838521	     26.99527315	     88.50831624	      0.34330420	      0.98839948	     -1.24641119	     61.59040960	    -17.16414042	    -10.08379270	    -80.03706402	    -19.71958013	      0.00000000	      0.00000000	     60.09139441	    -20.03818232	    -11.00402723	    -79.06408474	    -15.75491697	      0.00000000	      0.00000000	    -23.18553973	      1.67499802	     -0.03764338
      0.09166667	      2.36872977	     26.99483353	     88.50841649	      0.34330915	      0.98837240	     -1.24640573	     61.59032781	    -17.16428044	    -10.08365078	    -80.03703172	    -19.71957921	      0.00000000	      0.00000000	     60.09095735	    -20.03821669	    -11.00399447	    -79.06417972	    -15.75491360	      0.00000000	      0.00000000	    -23.18551894	      1.67499826	     -0.03763963
      0.10000000	      2.39467829	     26.98236018	     88.50707694	      0.34321887	      0.98828898	     -1.24647819	     61.60582043	    -17.16397135	    -10.07726264	    -80.05419709	    -19.71875898	      0.00000000	      0.00000000	     60.06439665	    -20.04618613	    -11.01097156	    -78.96250935	    -15.75171064	      0.00000000	      0.00000000	    -23.16706448	      1.71538450	     -0.03874239
      0.10833333	      2.40491339	     26.96669591	     88.49955357	      0.34329082	      0.98826528	     -1.24651461	     61.61948815	    -17.14796508	    -10.09058784	    -80.05521385	    -19.71843877	      0.00000000	      0.00000000	     60.05611820	    -20.05832024	    -10.98956792	    -78.76507702	    -15.74618139	      0.00000000	      0.00000000	    -23.14973813	      1.71833192	     -0.04153991
      0.11666667	      2.40936619	     26.95549400	     88.49268751	      0.34334573	      0.98826695	     -1.24653776	     61.62515942	    -17.12759195	    -10.09639081	    -80.04980822	    -19.71859348	      0.00000000	      0.00000000	     60.05826386	    -20.06273225	    -10.96557879	    -78.56911612	    -15.73775252	      0.00000000	      0.00000000	    -23.13778895	      1.71882351	     -0.04134757
      0.12500000	      2.41768199	     26.94757450	     88.48867783	      0.34335372	      0.98822136	     -1.24657217	     61.63441326	    -17.11705216	    -10.10457787	    -80.05529970	    -19.71815015	      0.00000000	      0.00000000	     60.06210630	    -20.07803463	    -10.94856841	    -78.36181496	    -15.73177777	      0.00000000	      0.00000000	    -23.13036049	      1.72927300	     -0.04097971
      0.13333333	      2.42863519	     26.93983655	     88.48074578	      0.34337564	      0.98821165	     -1.24656995	     61.63759933	    -17.10200408	    -10.12081874	    -80.05531265	    -19.71712708	      0.00000000	      0.00000000	     60.07629128	    -20.08835632	    -10.94817572	    -78.12711909	    -15.72797393	      0.00000000	      0.00000000	    -23.12033317	      1.73876110	     -0.03897728
